<svg xmlns="http://www.w3.org/2000/svg" version="1.1" xmlns:xlink="http://www.w3.org/1999/xlink" xmlns:svgjs="http://svgjs.dev/svgjs" width="2000" height="722" viewBox="0 0 2000 722"><g transform="matrix(1,0,0,1,-1.2121212121212466,0.8430271122733757)"><svg viewBox="0 0 396 143" data-background-color="#ffffff" preserveAspectRatio="xMidYMid meet" height="722" width="2000" xmlns="http://www.w3.org/2000/svg" xmlns:xlink="http://www.w3.org/1999/xlink"><g id="tight-bounds" transform="matrix(1,0,0,1,0.2400000000000091,-0.16697074384362054)"><svg viewBox="0 0 395.52 143.33394148768724" height="143.33394148768724" width="395.52"><g><svg viewBox="0 0 675.4459072814412 244.777316323766" height="143.33394148768724" width="395.52"><g transform="matrix(1,0,0,1,279.92590728144125,85.1669679459406)"><svg viewBox="0 0 395.52 74.44338043188482" height="74.44338043188482" width="395.52"><g id="textblocktransform"><svg viewBox="0 0 395.52 74.44338043188482" height="74.44338043188482" width="395.52" id="textblock"><g><svg viewBox="0 0 395.52 74.44338043188482" height="74.44338043188482" width="395.52"><g transform="matrix(1,0,0,1,0,0)"><svg width="395.52" viewBox="1.5 -34.9 187.54 35.3" height="74.44338043188482" data-palette-color="#ed2647"><g class="wordmark-text-0" data-fill-palette-color="primary" id="text-0"><path d="M34.05-5.85L34.05-18.85Q34.05-20.85 34.4-25.05L34.4-25.05 34.5-26.25 34-26.3Q32.85-22.05 32-19.55L32-19.55 25.35 0 18.7 0 11.7-19.55Q10.75-21.8 10-25.15L10-25.15 9.7-26.3 9.2-26.25Q9.65-21.8 9.65-18.85L9.65-18.85 9.65-5.7Q11.5-5 12.4-3.85L12.4-3.85 11.9 0 2.1 0 1.6-3.85Q2.5-5 4.35-5.7L4.35-5.7 4.35-28.8Q2.3-29.55 1.5-30.65L1.5-30.65 2-34.5 13.4-34.5 20.7-14.35Q22.1-11.05 22.5-8.3L22.5-8.3 22.65-7.45 23.35-7.45Q23.55-10.5 25.15-14.35L25.15-14.35 32.1-34.5 43.3-34.5 43.8-30.65Q43-29.55 40.95-28.8L40.95-28.8 40.95-5.9Q42.9-5.15 43.7-4.15L43.7-4.15 43.2 0 31.8 0 31.3-4.1Q32.1-5.1 34.05-5.85L34.05-5.85ZM58.4-20.3L58.4-20.3Q53.8-20.3 53.8-12.4L53.8-12.4Q53.8-8.4 55.07-6.83 56.35-5.25 58.75-5.25L58.75-5.25Q62.55-5.25 65.45-5.95L65.45-5.95 66.95-2.1Q65.35-1.05 62.65-0.33 59.95 0.4 57.4 0.4L57.4 0.4Q46.6 0.4 46.6-12.1L46.6-12.1Q46.6-19.4 50.35-22.6L50.35-22.6Q53.7-25.4 58.5-25.4 63.3-25.4 66.5-23.6L66.5-23.6Q66.55-23.1 66.55-22.65L66.55-22.65Q66.55-19.8 65.25-17.25L65.25-17.25 60.85-17.25Q60.15-18.5 60-20.25L60-20.25Q59.4-20.3 58.4-20.3ZM69.94-34.5L92.75-34.5 92.75-25.8 89.05-25.35Q87.89-26.35 87.19-29.05L87.19-29.05 79.39-29.05 79.39-19.95 86.34-19.95Q86.94-21.45 87.59-22.05L87.59-22.05 90.75-21.7 90.75-12.8 87.59-12.4Q86.94-12.9 86.34-14.5L86.34-14.5 79.39-14.5 79.39-6.2Q82.75-5.45 84.25-4.15L84.25-4.15 83.75 0 69.94 0 69.44-4.15Q70.09-5 72.19-5.8L72.19-5.8 72.19-28.65Q70.14-29.4 69.44-30.35L69.44-30.35 69.94-34.5ZM109.64 0.4Q102.54 0.4 99.02-3.7 95.49-7.8 95.49-16.98 95.49-26.15 99.37-30.53 103.24-34.9 110.42-34.9 117.59-34.9 121.12-31 124.64-27.1 124.64-17.95 124.64-8.8 120.69-4.2 116.74 0.4 109.64 0.4ZM104.79-26.65Q102.99-24.05 102.99-17.6 102.99-11.15 104.89-8.2 106.79-5.25 110.12-5.25 113.44-5.25 115.29-8.03 117.14-10.8 117.14-17.25L117.14-17.25Q117.14-29.25 109.94-29.25L109.94-29.25Q106.59-29.25 104.79-26.65ZM141.79 0.4Q134.69 0.4 131.17-3.7 127.64-7.8 127.64-16.98 127.64-26.15 131.52-30.53 135.39-34.9 142.57-34.9 149.74-34.9 153.27-31 156.79-27.1 156.79-17.95 156.79-8.8 152.84-4.2 148.89 0.4 141.79 0.4ZM136.94-26.65Q135.14-24.05 135.14-17.6 135.14-11.15 137.04-8.2 138.94-5.25 142.27-5.25 145.59-5.25 147.44-8.03 149.29-10.8 149.29-17.25L149.29-17.25Q149.29-29.25 142.09-29.25L142.09-29.25Q138.74-29.25 136.94-26.65ZM173.14 0L173.14 0 160.39 0 159.89-4.15Q160.54-5 162.64-5.8L162.64-5.8 162.64-28.65Q160.59-29.4 159.89-30.35L159.89-30.35 160.39-34.5 171.54-34.5Q179.59-34.5 184.31-30 189.04-25.5 189.04-16.78 189.04-8.05 184.76-4.03 180.49 0 173.14 0ZM169.84-29.05L169.84-5.45 173.44-5.45Q177.19-5.45 179.36-7.73 181.54-10 181.54-16.55L181.54-16.55Q181.54-29.05 172.09-29.05L172.09-29.05 169.84-29.05Z" fill="#ed2647" data-fill-palette-color="primary"></path></g></svg></g></svg></g></svg></g></svg></g><g><svg viewBox="0 0 244.777316323766 244.777316323766" height="244.777316323766" width="244.777316323766"><g><svg></svg></g><g id="icon-0"><svg viewBox="0 0 244.777316323766 244.777316323766" height="244.777316323766" width="244.777316323766"><g><path d="M0 122.389c0-67.593 54.795-122.389 122.389-122.389 67.593 0 122.389 54.795 122.388 122.389 0 67.593-54.795 122.389-122.388 122.388-67.593 0-122.389-54.795-122.389-122.388zM122.389 238.064c63.886 0 115.675-51.79 115.675-115.675 0-63.886-51.79-115.675-115.675-115.676-63.886 0-115.675 51.79-115.676 115.676 0 63.886 51.79 115.675 115.676 115.675z" data-fill-palette-color="accent" fill="#ed2647" stroke="transparent"></path><ellipse rx="121.16477158026417" ry="121.16477158026417" cx="122.388658161883" cy="122.388658161883" fill="#ed2647" stroke="transparent" stroke-width="0" fill-opacity="1" data-fill-palette-color="accent"></ellipse></g><g transform="matrix(1,0,0,1,49.82715512500329,68.90389488223573)"><svg viewBox="0 0 145.12300607375943 106.96952655929454" height="106.96952655929454" width="145.12300607375943"><g><svg xmlns="http://www.w3.org/2000/svg" xmlns:xlink="http://www.w3.org/1999/xlink" version="1.0" x="0" y="0" viewBox="21.223632799999997 28.1503906 56.7763672 41.8496094" enable-background="new 0 0 100 100" xml:space="preserve" height="106.96952655929454" width="145.12300607375943" class="icon-cg-0" data-fill-palette-color="quaternary" id="cg-0"><g fill="#ffffff" data-fill-palette-color="quaternary"><g fill="#ffffff" data-fill-palette-color="quaternary"><path d="M26.112 40.707c-2.984 0-4.888 4.047-4.888 6.833 0 2.531 1.556 4.388 3.888 4.799V69c0 0.552 0.448 1 1 1s1-0.448 1-1V52.339C29.444 51.927 31 50.07 31 47.54 31 44.754 29.096 40.707 26.112 40.707zM26.112 50.428c-1.396 0-2.888-0.759-2.888-2.888 0-2.213 1.565-4.833 2.888-4.833S29 45.327 29 47.54C29 49.669 27.508 50.428 26.112 50.428z" fill="#ffffff" data-fill-palette-color="quaternary"></path><path d="M72 42.081c-0.552 0-1 0.448-1 1V69c0 0.552 0.448 1 1 1s1-0.448 1-1V43.081C73 42.529 72.552 42.081 72 42.081z" fill="#ffffff" data-fill-palette-color="quaternary"></path><path d="M77 42.081c-0.552 0-1 0.448-1 1V69c0 0.552 0.448 1 1 1s1-0.448 1-1V43.081C78 42.529 77.552 42.081 77 42.081z" fill="#ffffff" data-fill-palette-color="quaternary"></path><path d="M51 28.15c-8.271 0-15 6.729-15 15V69c0 0.552 0.448 1 1 1s1-0.448 1-1V43.15c0-7.168 5.832-13 13-13s13 5.832 13 13V69c0 0.552 0.448 1 1 1s1-0.448 1-1V43.15C66 34.879 59.271 28.15 51 28.15z" fill="#ffffff" data-fill-palette-color="quaternary"></path><path d="M50 43c-0.552 0-1 0.448-1 1v7c0 0.552 0.448 1 1 1h5.167c0.552 0 1-0.448 1-1s-0.448-1-1-1H51v-6C51 43.448 50.552 43 50 43z" fill="#ffffff" data-fill-palette-color="quaternary"></path><path d="M59 55H44c-0.552 0-1 0.448-1 1s0.448 1 1 1h3.038c-0.041 1.61 0.09 3.564 0.917 5.06 0.713 1.292 1.979 1.694 3.227 1.025 0.67-0.36 1.083-0.896 1.448-1.368C53.112 61.093 53.319 60.875 53.75 60.875c0.205 0 0.257 0.054 0.28 0.077 0.367 0.376 0.331 1.906 0.307 2.919-0.041 1.741-0.08 3.385 0.907 4.32 0.501 0.475 1.142 0.722 1.806 0.722 0.371 0 0.75-0.077 1.116-0.234C59.263 68.207 60 67.13 60 66V56C60 55.448 59.552 55 59 55zM58 66c0 0.394-0.324 0.712-0.624 0.841-0.204 0.088-0.5 0.141-0.756-0.101-0.341-0.324-0.306-1.827-0.283-2.823 0.039-1.664 0.079-3.385-0.877-4.363C55.158 59.244 54.615 58.875 53.75 58.875c-1.451 0-2.174 0.936-2.702 1.62-0.278 0.359-0.518 0.67-0.813 0.828-0.233 0.125-0.311 0.166-0.529-0.23C49.212 60.2 48.993 58.855 49.041 57H58V66z" fill="#ffffff" data-fill-palette-color="quaternary"></path><circle cx="43.5" cy="44.5" r="1.5" fill="#ffffff" data-fill-palette-color="quaternary"></circle><circle cx="57.5" cy="44.5" r="1.5" fill="#ffffff" data-fill-palette-color="quaternary"></circle></g></g></svg></g></svg></g></svg></g></svg></g></svg></g><defs></defs></svg><rect width="395.52" height="143.33394148768724" fill="none" stroke="none" visibility="hidden"></rect></g></svg></g></svg>